<svg xmlns="http://www.w3.org/2000/svg" xmlns:xlink="http://www.w3.org/1999/xlink" id="Layer_1" width="319" height="377" x="0" y="0" enable-background="new 35 -63 319 377" version="1.1" viewBox="35 -63 319 377" xml:space="preserve"><rect width="148.9" height="98" x="35" y="-39" fill="#89479B"/><text fill="#89479B" font-family="'GothamRounded-Book'" font-size="16" transform="matrix(1 0 0 1 43 -39)">flex-start</text><rect width="148.9" height="98" x="35" y="90" fill="#89479B"/><text fill="#89479B" font-family="'GothamRounded-Book'" font-size="16" transform="matrix(1 0 0 1 43 90)">center</text><rect width="148.9" height="98" x="35" y="216" fill="#89479B"/><text fill="#89479B" font-family="'GothamRounded-Book'" font-size="16" transform="matrix(1 0 0 1 43 216)">space-between</text><rect width="148.9" height="98" x="194.5" y="90" fill="#89479B"/><text fill="#89479B" font-family="'GothamRounded-Book'" font-size="16" transform="matrix(1 0 0 1 202.5 90)">stretch</text><rect width="148.9" height="98" x="194.5" y="216" fill="#89479B"/><text fill="#89479B" font-family="'GothamRounded-Book'" font-size="16" transform="matrix(1 0 0 1 202.5 216)">space-around</text><rect width="148.9" height="98" x="194.5" y="-39" fill="#89479B"/><text fill="#89479B" font-family="'GothamRounded-Book'" font-size="16" transform="matrix(1 0 0 1 202.5 -39)">flex-end</text><rect width="15.5" height="19.5" x="38.5" y="-35.5" fill="#E38712"/><rect width="30" height="19.5" x="58" y="-35.5" fill="#E38712"/><rect width="8.5" height="19.5" x="91.5" y="-35.5" fill="#E38712"/><rect width="26.8" height="19.5" x="38.8" y="-12" fill="#E38712"/><rect width="26.8" height="19.5" x="69" y="-12" fill="#E38712"/><rect width="19.2" height="19.5" x="38.8" y="11" fill="#E38712"/><rect width="26.6" height="19.5" x="61.4" y="11" fill="#E38712"/><rect width="15.3" height="19.5" x="99" y="-12" fill="#E38712"/><rect width="63.2" height="19.5" x="117.8" y="-12" fill="#E38712"/><rect width="22.3" height="19.5" x="103.2" y="-35.5" fill="#E38712"/><rect width="52.3" height="19.5" x="128.7" y="-35.5" fill="#E38712"/><rect width="15.5" height="19.5" x="198.7" y="-11.2" fill="#E38712"/><rect width="30" height="19.5" x="218.2" y="-11.2" fill="#E38712"/><rect width="8.5" height="19.5" x="251.7" y="-11.2" fill="#E38712"/><rect width="26.8" height="19.5" x="198.9" y="12.2" fill="#E38712"/><rect width="26.8" height="19.5" x="229.2" y="12.2" fill="#E38712"/><rect width="19.2" height="19.5" x="198.9" y="35.2" fill="#E38712"/><rect width="26.6" height="19.5" x="221.6" y="35.2" fill="#E38712"/><rect width="15.3" height="19.5" x="259.2" y="12.2" fill="#E38712"/><rect width="63.2" height="19.5" x="278" y="12.2" fill="#E38712"/><rect width="22.3" height="19.5" x="263.4" y="-11.2" fill="#E38712"/><rect width="52.3" height="19.5" x="288.9" y="-11.2" fill="#E38712"/><rect width="15.5" height="19.5" x="38.2" y="106" fill="#E38712"/><rect width="30" height="19.5" x="57.7" y="106" fill="#E38712"/><rect width="8.5" height="19.5" x="91.2" y="106" fill="#E38712"/><rect width="26.8" height="19.5" x="38.4" y="129.5" fill="#E38712"/><rect width="26.8" height="19.5" x="68.7" y="129.5" fill="#E38712"/><rect width="19.2" height="19.5" x="38.4" y="152.5" fill="#E38712"/><rect width="26.6" height="19.5" x="61.1" y="152.5" fill="#E38712"/><rect width="15.3" height="19.5" x="98.7" y="129.5" fill="#E38712"/><rect width="63.2" height="19.5" x="117.5" y="129.5" fill="#E38712"/><rect width="22.3" height="19.5" x="102.9" y="106" fill="#E38712"/><rect width="52.3" height="19.5" x="128.4" y="106" fill="#E38712"/><rect width="15.5" height="19.5" x="38.2" y="220" fill="#E38712"/><rect width="30" height="19.5" x="57.7" y="220" fill="#E38712"/><rect width="8.5" height="19.5" x="91.2" y="220" fill="#E38712"/><rect width="26.8" height="19.5" x="38.4" y="254.5" fill="#E38712"/><rect width="26.8" height="19.5" x="68.7" y="254.5" fill="#E38712"/><rect width="19.2" height="19.5" x="38.4" y="291" fill="#E38712"/><rect width="26.6" height="19.5" x="61.1" y="291" fill="#E38712"/><rect width="15.3" height="19.5" x="98.7" y="254.5" fill="#E38712"/><rect width="63.2" height="19.5" x="117.5" y="254.5" fill="#E38712"/><rect width="22.3" height="19.5" x="102.9" y="220" fill="#E38712"/><rect width="52.3" height="19.5" x="128.4" y="220" fill="#E38712"/><rect width="15.5" height="19.5" x="197.7" y="222.8" fill="#E38712"/><rect width="30" height="19.5" x="217.2" y="222.8" fill="#E38712"/><rect width="8.5" height="19.5" x="250.7" y="222.8" fill="#E38712"/><rect width="26.8" height="19.5" x="197.9" y="256.2" fill="#E38712"/><rect width="26.8" height="19.5" x="228.2" y="256.2" fill="#E38712"/><rect width="19.2" height="19.5" x="197.9" y="288.8" fill="#E38712"/><rect width="26.6" height="19.5" x="220.6" y="288.8" fill="#E38712"/><rect width="15.3" height="19.5" x="258.2" y="256.2" fill="#E38712"/><rect width="63.2" height="19.5" x="277" y="256.2" fill="#E38712"/><rect width="22.3" height="19.5" x="262.4" y="222.8" fill="#E38712"/><rect width="52.3" height="19.5" x="287.9" y="222.8" fill="#E38712"/><rect width="15.5" height="26.7" x="197.7" y="94" fill="#E38712"/><rect width="30" height="26.7" x="217.2" y="94" fill="#E38712"/><rect width="8.5" height="26.7" x="250.7" y="94" fill="#E38712"/><rect width="26.8" height="26.7" x="197.9" y="126.2" fill="#E38712"/><rect width="26.8" height="26.7" x="228.2" y="126.2" fill="#E38712"/><rect width="19.2" height="26.7" x="197.9" y="157.8" fill="#E38712"/><rect width="26.6" height="26.7" x="220.6" y="157.8" fill="#E38712"/><rect width="15.3" height="26.7" x="258.2" y="126.2" fill="#E38712"/><rect width="63.2" height="26.7" x="277" y="126.2" fill="#E38712"/><rect width="22.3" height="26.7" x="262.4" y="94" fill="#E38712"/><rect width="52.3" height="26.7" x="287.9" y="94" fill="#E38712"/></svg>