<svg xmlns="http://www.w3.org/2000/svg" xmlns:xlink="http://www.w3.org/1999/xlink" id="Layer_1" width="319" height="377" x="0" y="0" enable-background="new 0 0 319 377" version="1.1" viewBox="0 0 319 377" xml:space="preserve"><rect width="148.895" height="98" y="24" fill="#89479B"/><rect width="29.547" height="48.5" y="24" fill="#E88024"/><rect width="29.547" height="59.5" x="39.119" y="24" fill="#E88024"/><rect width="29.547" height="29.75" x="79.355" y="24" fill="#E88024"/><rect width="29.547" height="48.5" x="119.347" y="24" fill="#E88024"/><text fill="#89479B" font-family="'GothamRounded-Book'" font-size="16" transform="matrix(1 0 0 1 8 24)">flex-start</text><rect width="148.895" height="98" y="155" fill="#89479B"/><rect width="29.547" height="48.5" y="178.281" fill="#E88024"/><rect width="29.547" height="59.5" x="39.119" y="172.781" fill="#E88024"/><rect width="29.547" height="29.75" x="79.355" y="187.656" fill="#E88024"/><rect width="29.547" height="48.5" x="119.347" y="178.281" fill="#E88024"/><text fill="#89479B" font-family="'GothamRounded-Book'" font-size="16" transform="matrix(1 0 0 1 8 155)">center</text><rect width="308.395" height="98" y="279" fill="#89479B"/><rect width="64" height="68.875" y="287.406" fill="#E88024"/><rect width="64" height="43.438" x="70.121" y="293.562" fill="#E88024"/><rect width="78.727" height="63.594" x="142.273" y="286.406" fill="#E88024"/><rect width="78.727" height="76.953" x="229.039" y="290.047" fill="#E88024"/><text fill="#89479B" font-family="'GothamRounded-Book'" font-size="16" transform="matrix(1 0 0 1 8 279)">baseline</text><rect width="148.895" height="98" x="159.5" y="155" fill="#89479B"/><rect width="29.547" height="98.969" x="159.5" y="154.031" fill="#E88024"/><rect width="29.547" height="98" x="198.619" y="155" fill="#E88024"/><rect width="29.547" height="98" x="238.855" y="155" fill="#E88024"/><rect width="29.547" height="98" x="278.848" y="155" fill="#E88024"/><text fill="#89479B" font-family="'GothamRounded-Book'" font-size="16" transform="matrix(1 0 0 1 167.5 155)">stretch</text><rect width="148.895" height="98" x="159.5" y="24" fill="#89479B"/><rect width="29.547" height="48.5" x="159.5" y="73.5" fill="#E88024"/><rect width="29.547" height="59.5" x="198.619" y="62.5" fill="#E88024"/><rect width="29.547" height="29.75" x="238.855" y="92.25" fill="#E88024"/><rect width="29.547" height="48.5" x="278.848" y="73.5" fill="#E88024"/><text fill="#89479B" font-family="'GothamRounded-Book'" font-size="16" transform="matrix(1 0 0 1 167.5 24)">flex-end</text><text font-family="'GothamRounded-Book'" font-size="13" transform="matrix(1 0 0 1 5 308)">text text</text><text font-family="'GothamRounded-Book'" font-size="13" transform="matrix(1 0 0 1 243 308)">text text</text><text font-family="'GothamRounded-Book'" font-size="10" transform="matrix(1 0 0 1 81.666 308.7295)">text text</text><text font-family="'GothamRounded-Book'" font-size="16" transform="matrix(1 0 0 1 149.1973 307.2715)">text text</text><line x1="0" x2="308.395" y1="308" y2="308" fill="none" stroke="#F7EC1D" stroke-miterlimit="10"/></svg>