<svg xmlns="http://www.w3.org/2000/svg" xmlns:xlink="http://www.w3.org/1999/xlink" id="Layer_1" width="400" height="111.5" x="0" y="0" enable-background="new 0 0 400 111.5" version="1.1" viewBox="0 0 400 111.5" xml:space="preserve"><rect width="372" height="31.75" x="13.5" y="14.75" fill="#88499C"/><rect width="115.719" height="24.966" x="19.864" y="18.006" fill="#E77F24"/><rect width="115.719" height="24.966" x="141.55" y="18.142" fill="#E77F24"/><rect width="115.719" height="24.966" x="263.235" y="18.278" fill="#E77F24"/><text fill="#FFF" font-family="'GothamRounded-Bold'" font-size="16" transform="matrix(1.0909 0 0 1 72.3252 36.5)">1</text><text fill="#FFF" font-family="'GothamRounded-Bold'" font-size="16" transform="matrix(1.0909 0 0 1 196.7793 36.5)">1</text><text fill="#FFF" font-family="'GothamRounded-Bold'" font-size="16" transform="matrix(1.0909 0 0 1 319.0957 36.5)">1</text><rect width="372" height="31.75" x="14" y="62.75" fill="#88499C"/><rect width="89.136" height="24.966" x="20.364" y="66.006" fill="#E77F24"/><rect width="175" height="24.966" x="114.5" y="66.142" fill="#E77F24"/><rect width="84.954" height="24.966" x="294.5" y="66.278" fill="#E77F24"/><text fill="#FFF" font-family="'GothamRounded-Bold'" font-size="16" transform="matrix(1.0909 0 0 1 61.8252 84.5)">1</text><text fill="#FFF" font-family="'GothamRounded-Bold'" font-size="16" transform="matrix(1.0909 0 0 1 195.2793 84.5)">2</text><text fill="#FFF" font-family="'GothamRounded-Bold'" font-size="16" transform="matrix(1.0909 0 0 1 334.9766 84.5)">1</text></svg>