<svg xmlns="http://www.w3.org/2000/svg" xmlns:xlink="http://www.w3.org/1999/xlink" id="Layer_1" width="319" height="112" x="0" y="0" enable-background="new 0 0 319 112" version="1.1" viewBox="0 0 319 112" xml:space="preserve"><rect width="319" height="112" fill="#89479B"/><rect width="42.669" height="22" x="24" y="10" fill="#E88024"/><rect width="67.713" height="22" x="76.873" y="10" fill="#E88024"/><rect width="42.669" height="22" x="154.79" y="10" fill="#E88024"/><rect width="85.338" height="22" x="207.662" y="10" fill="#E88024"/><rect width="31.538" height="22" x="24" y="74.5" fill="#E88024"/><rect width="63.076" height="22" x="66.669" y="74.5" fill="#E88024"/><rect width="42.669" height="22" x="138.557" y="74.5" fill="#E88024"/><g><g><path fill="none" stroke="#FFF" stroke-miterlimit="10" d="M296.276,17c1.041,0,2.015,0.231,2.916,0.623"/><path fill="none" stroke="#FFF" stroke-dasharray="6.068 6.068" stroke-miterlimit="10" d="M303.817,21.466 c2.089,2.657,3.208,5.514,3.208,5.514s25.405,34.477-170.511,31.755c0,0-127.032-11.428-127.604,17.591"/><path fill="none" stroke="#FFF" stroke-miterlimit="10" d="M9.273,79.323c0.171,0.679,0.404,1.376,0.702,2.094l0.678,0.405"/><g><polygon fill="#FFF" points="6.854 85.066 16.815 85.5 12.211 76.655"/></g></g></g></svg>