<svg xmlns="http://www.w3.org/2000/svg" xmlns:xlink="http://www.w3.org/1999/xlink" id="Layer_1" width="319" height="85" x="0" y="0" enable-background="new 0 0 319 85" version="1.1" viewBox="0 0 319 85" xml:space="preserve"><rect width="18" height="18" x="12" y="7" fill="#E88024"/><rect width="18" height="18" x="12" y="32" fill="#E88024"/><rect width="18" height="18" x="12" y="57" fill="#E88024"/><rect width="18" height="18" x="76" y="7" fill="#E88024"/><rect width="18" height="18" x="76" y="32" fill="#E88024"/><rect width="18" height="18" x="76" y="57" fill="#E88024"/><rect width="18" height="18" x="194" y="57" fill="#E88024"/><rect width="18" height="18" x="169" y="57" fill="#E88024"/><rect width="18" height="18" x="144" y="57" fill="#E88024"/><rect width="18" height="18" x="290" y="57" fill="#E88024"/><rect width="18" height="18" x="265" y="57" fill="#E88024"/><rect width="18" height="18" x="240" y="57" fill="#E88024"/><g><g><line x1="45" x2="45" y1="68" y2="25.888" fill="none" stroke="#4470B7" stroke-miterlimit="10" stroke-width="5"/><g><polygon fill="#4470B7" points="35.889 27.109 54.111 27.109 45 18"/></g></g></g><g><g><line x1="109" x2="109" y1="18" y2="60.112" fill="none" stroke="#4470B7" stroke-miterlimit="10" stroke-width="5"/><g><polygon fill="#4470B7" points="118.111 58.891 99.889 58.891 109 68"/></g></g></g><g><g><line x1="153.001" x2="195.113" y1="43" y2="43" fill="none" stroke="#4470B7" stroke-miterlimit="10" stroke-width="5"/><g><polygon fill="#4470B7" points="193.892 33.889 193.892 52.111 203.001 43"/></g></g></g><g><g><line x1="298.998" x2="256.886" y1="43" y2="43" fill="none" stroke="#4470B7" stroke-miterlimit="10" stroke-width="5"/><g><polygon fill="#4470B7" points="258.107 52.111 258.107 33.888 248.998 43"/></g></g></g></svg>