<svg xmlns="http://www.w3.org/2000/svg" xmlns:xlink="http://www.w3.org/1999/xlink" id="Layer_1" x="0" y="0" enable-background="new 50 39.5 372 248.7" version="1.1" viewBox="50 39.5 372 248.7" xml:space="preserve"><rect width="341" height="31.8" x="63.5" y="56.1" fill="#88499C"/><rect width="44.4" height="25" x="69.3" y="59.4" fill="#E77F24"/><rect width="71.3" height="25" x="119.8" y="59.4" fill="#E77F24"/><rect width="102.2" height="25" x="296.1" y="59.4" fill="#E77F24"/><rect width="44.4" height="25" x="197.4" y="59.4" fill="#E77F24"/><rect width="44.4" height="25" x="247.1" y="59.5" fill="#E77F24"/><rect width="341" height="31.8" x="63.5" y="102.1" fill="#88499C"/><rect width="44.4" height="25" x="69.3" y="105.4" fill="#E77F24"/><rect width="71.3" height="25" x="169.5" y="105.4" fill="#E77F24"/><rect width="44.4" height="25" x="119.8" y="105.4" fill="#E77F24"/><rect width="35.5" height="25" x="245.8" y="105.4" fill="#E77F24"/><rect width="111.5" height="125.3" x="63.5" y="147.5" fill="#88499C"/><text fill="#FFF" font-family="'Gotham-Bold'" font-size="12" transform="matrix(1 0 0 1 87 75.5)">1</text><text fill="#FFF" font-family="'Gotham-Bold'" font-size="12" transform="matrix(1 0 0 1 85 121.8333)">-1</text><text fill="#FFF" font-family="'Gotham-Bold'" font-size="12" transform="matrix(1 0 0 1 138.3333 121.8333)">1</text><text fill="#FFF" font-family="'Gotham-Bold'" font-size="12" transform="matrix(1 0 0 1 202.3333 121.8337)">2</text><text fill="#FFF" font-family="'Gotham-Bold'" font-size="12" transform="matrix(1 0 0 1 260.6667 121.8337)">5</text><text fill="#FFF" font-family="'Gotham-Bold'" font-size="12" transform="matrix(1 0 0 1 151.6667 75.5)">1</text><text fill="#FFF" font-family="'Gotham-Bold'" font-size="12" transform="matrix(1 0 0 1 214.6667 75.5)">1</text><text fill="#FFF" font-family="'Gotham-Bold'" font-size="12" transform="matrix(1 0 0 1 264.6664 75.5)">2</text><text fill="#FFF" font-family="'Gotham-Bold'" font-size="12" transform="matrix(1 0 0 1 347.24 75.5)">3</text><rect width="94.9" height="25" x="71.3" y="156.4" fill="#E77F24"/><rect width="94.9" height="25" x="71.3" y="189.4" fill="#E77F24"/><rect width="94.9" height="41.5" x="71.3" y="223" fill="#E77F24"/><text fill="#FFF" font-family="'Gotham-Bold'" font-size="12" transform="matrix(1 0 0 1 113.6667 172.8337)">2</text><text fill="#FFF" font-family="'Gotham-Bold'" font-size="12" transform="matrix(1 0 0 1 113.6668 205.8337)">2</text><text fill="#FFF" font-family="'Gotham-Bold'" font-size="12" transform="matrix(1 0 0 1 111.6667 246.8337)">99</text></svg>